# xmcd
#
# Track frame offsets:
#	150
#	16476
#	34271
#	48174
#	73425
#	102685
#	124294
#	142839
#	164981
#	190143
#	203294
#
# Disc length: 2955 seconds
#
# Revision: 0
# Processed by: cddbd v1.5.1PL2 Copyright (c) Steve Scherf et al.
# Submitted via: dBpowerAMP V4.0
#
DISCID=a40b890b
DTITLE=Stiletto Rain - Pawnshop Boogie
DYEAR=2000
DGENRE=Blues
TTITLE0=Party Tonight
TTITLE1=Bad Reputation
TTITLE2=My My My
TTITLE3=Stay With Me Tonight
TTITLE4=ugly.com
TTITLE5=455 Rocket
TTITLE6=Pawnshop Boogie
TTITLE7=When The Blues
TTITLE8=Payment
TTITLE9=Ain't Too Young
TTITLE10=Ti Na Nee Na Nu
EXTD=
EXTT0=
EXTT1=
EXTT2=
EXTT3=
EXTT4=
EXTT5=
EXTT6=
EXTT7=
EXTT8=
EXTT9=
EXTT10=
PLAYORDER=
